<?xml version="1.0" encoding="utf-8" standalone="no"?>
<!DOCTYPE svg PUBLIC "-//W3C//DTD SVG 1.1//EN"
  "http://www.w3.org/Graphics/SVG/1.1/DTD/svg11.dtd">
<svg xmlns:xlink="http://www.w3.org/1999/xlink" width="572.4pt" height="696.317813pt" viewBox="0 0 572.4 696.317813" xmlns="http://www.w3.org/2000/svg" version="1.1">
 <metadata>
  <rdf:RDF xmlns:dc="http://purl.org/dc/elements/1.1/" xmlns:cc="http://creativecommons.org/ns#" xmlns:rdf="http://www.w3.org/1999/02/22-rdf-syntax-ns#">
   <cc:Work>
    <dc:type rdf:resource="http://purl.org/dc/dcmitype/StillImage"/>
    <dc:date>2025-09-14T21:12:49.905372</dc:date>
    <dc:format>image/svg+xml</dc:format>
    <dc:creator>
     <cc:Agent>
      <dc:title>Matplotlib v3.10.6, https://matplotlib.org/</dc:title>
     </cc:Agent>
    </dc:creator>
   </cc:Work>
  </rdf:RDF>
 </metadata>
 <defs>
  <style type="text/css">*{stroke-linejoin: round; stroke-linecap: butt}</style>
 </defs>
 <g id="figure_1">
  <g id="patch_1">
   <path d="M 0 696.317813 
L 572.4 696.317813 
L 572.4 0 
L 0 0 
L 0 696.317813 
z
" style="fill: none; opacity: 0"/>
  </g>
  <g id="axes_1">
   <g id="patch_2">
    <path d="M 7.2 106.997813 
L 565.2 106.997813 
L 565.2 65.417813 
L 7.2 65.417813 
z
" clip-path="url(#p68d68ffb07)" style="fill: #cce5ff; stroke: #000000; stroke-linejoin: miter"/>
   </g>
   <g id="patch_3">
    <path d="M 7.2 148.577813 
L 565.2 148.577813 
L 565.2 106.997813 
L 7.2 106.997813 
z
" clip-path="url(#p68d68ffb07)" style="fill: #99ccff; stroke: #000000; stroke-linejoin: miter"/>
   </g>
   <g id="patch_4">
    <path d="M 7.2 190.157813 
L 565.2 190.157813 
L 565.2 148.577813 
L 7.2 148.577813 
z
" clip-path="url(#p68d68ffb07)" style="fill: #d4edda; stroke: #000000; stroke-linejoin: miter"/>
   </g>
   <g id="patch_5">
    <path d="M 7.2 231.737813 
L 565.2 231.737813 
L 565.2 190.157813 
L 7.2 190.157813 
z
" clip-path="url(#p68d68ffb07)" style="fill: #a3e0a3; stroke: #000000; stroke-linejoin: miter"/>
   </g>
   <g id="patch_6">
    <path d="M 7.2 273.317813 
L 565.2 273.317813 
L 565.2 231.737813 
L 7.2 231.737813 
z
" clip-path="url(#p68d68ffb07)" style="fill: #f8d7da; stroke: #000000; stroke-linejoin: miter"/>
   </g>
   <g id="patch_7">
    <path d="M 7.2 314.897813 
L 565.2 314.897813 
L 565.2 273.317813 
L 7.2 273.317813 
z
" clip-path="url(#p68d68ffb07)" style="fill: #f5a6a6; stroke: #000000; stroke-linejoin: miter"/>
   </g>
   <g id="patch_8">
    <path d="M 7.2 356.477813 
L 565.2 356.477813 
L 565.2 314.897813 
L 7.2 314.897813 
z
" clip-path="url(#p68d68ffb07)" style="fill: #f8d7da; stroke: #000000; stroke-linejoin: miter"/>
   </g>
   <g id="patch_9">
    <path d="M 7.2 398.057813 
L 565.2 398.057813 
L 565.2 356.477813 
L 7.2 356.477813 
z
" clip-path="url(#p68d68ffb07)" style="fill: #f5a6a6; stroke: #000000; stroke-linejoin: miter"/>
   </g>
   <g id="patch_10">
    <path d="M 7.2 439.637813 
L 565.2 439.637813 
L 565.2 398.057813 
L 7.2 398.057813 
z
" clip-path="url(#p68d68ffb07)" style="fill: #f8d7da; stroke: #000000; stroke-linejoin: miter"/>
   </g>
   <g id="patch_11">
    <path d="M 7.2 481.217813 
L 565.2 481.217813 
L 565.2 439.637813 
L 7.2 439.637813 
z
" clip-path="url(#p68d68ffb07)" style="fill: #f5a6a6; stroke: #000000; stroke-linejoin: miter"/>
   </g>
   <g id="patch_12">
    <path d="M 7.2 522.797813 
L 565.2 522.797813 
L 565.2 481.217813 
L 7.2 481.217813 
z
" clip-path="url(#p68d68ffb07)" style="fill: #f8d7da; stroke: #000000; stroke-linejoin: miter"/>
   </g>
   <g id="patch_13">
    <path d="M 7.2 564.377813 
L 565.2 564.377813 
L 565.2 522.797813 
L 7.2 522.797813 
z
" clip-path="url(#p68d68ffb07)" style="fill: #f5a6a6; stroke: #000000; stroke-linejoin: miter"/>
   </g>
   <g id="patch_14">
    <path d="M 7.2 605.957813 
L 565.2 605.957813 
L 565.2 564.377813 
L 7.2 564.377813 
z
" clip-path="url(#p68d68ffb07)" style="fill: #f8d7da; stroke: #000000; stroke-linejoin: miter"/>
   </g>
   <g id="patch_15">
    <path d="M 7.2 647.537813 
L 565.2 647.537813 
L 565.2 605.957813 
L 7.2 605.957813 
z
" clip-path="url(#p68d68ffb07)" style="fill: #f5a6a6; stroke: #000000; stroke-linejoin: miter"/>
   </g>
   <g id="text_1">
    <!-- Varint32 -->
    <g transform="translate(260.960625 82.800375) scale(0.12 -0.12)">
     <defs>
      <path id="DejaVuSans-56" d="M 1831 0 
L 50 4666 
L 709 4666 
L 2188 738 
L 3669 4666 
L 4325 4666 
L 2547 0 
L 1831 0 
z
" transform="scale(0.015625)"/>
      <path id="DejaVuSans-61" d="M 2194 1759 
Q 1497 1759 1228 1600 
Q 959 1441 959 1056 
Q 959 750 1161 570 
Q 1363 391 1709 391 
Q 2188 391 2477 730 
Q 2766 1069 2766 1631 
L 2766 1759 
L 2194 1759 
z
M 3341 1997 
L 3341 0 
L 2766 0 
L 2766 531 
Q 2569 213 2275 61 
Q 1981 -91 1556 -91 
Q 1019 -91 701 211 
Q 384 513 384 1019 
Q 384 1609 779 1909 
Q 1175 2209 1959 2209 
L 2766 2209 
L 2766 2266 
Q 2766 2663 2505 2880 
Q 2244 3097 1772 3097 
Q 1472 3097 1187 3025 
Q 903 2953 641 2809 
L 641 3341 
Q 956 3463 1253 3523 
Q 1550 3584 1831 3584 
Q 2591 3584 2966 3190 
Q 3341 2797 3341 1997 
z
" transform="scale(0.015625)"/>
      <path id="DejaVuSans-72" d="M 2631 2963 
Q 2534 3019 2420 3045 
Q 2306 3072 2169 3072 
Q 1681 3072 1420 2755 
Q 1159 2438 1159 1844 
L 1159 0 
L 581 0 
L 581 3500 
L 1159 3500 
L 1159 2956 
Q 1341 3275 1631 3429 
Q 1922 3584 2338 3584 
Q 2397 3584 2469 3576 
Q 2541 3569 2628 3553 
L 2631 2963 
z
" transform="scale(0.015625)"/>
      <path id="DejaVuSans-69" d="M 603 3500 
L 1178 3500 
L 1178 0 
L 603 0 
L 603 3500 
z
M 603 4863 
L 1178 4863 
L 1178 4134 
L 603 4134 
L 603 4863 
z
" transform="scale(0.015625)"/>
      <path id="DejaVuSans-6e" d="M 3513 2113 
L 3513 0 
L 2938 0 
L 2938 2094 
Q 2938 2591 2744 2837 
Q 2550 3084 2163 3084 
Q 1697 3084 1428 2787 
Q 1159 2491 1159 1978 
L 1159 0 
L 581 0 
L 581 3500 
L 1159 3500 
L 1159 2956 
Q 1366 3272 1645 3428 
Q 1925 3584 2291 3584 
Q 2894 3584 3203 3211 
Q 3513 2838 3513 2113 
z
" transform="scale(0.015625)"/>
      <path id="DejaVuSans-74" d="M 1172 4494 
L 1172 3500 
L 2356 3500 
L 2356 3053 
L 1172 3053 
L 1172 1153 
Q 1172 725 1289 603 
Q 1406 481 1766 481 
L 2356 481 
L 2356 0 
L 1766 0 
Q 1100 0 847 248 
Q 594 497 594 1153 
L 594 3053 
L 172 3053 
L 172 3500 
L 594 3500 
L 594 4494 
L 1172 4494 
z
" transform="scale(0.015625)"/>
      <path id="DejaVuSans-33" d="M 2597 2516 
Q 3050 2419 3304 2112 
Q 3559 1806 3559 1356 
Q 3559 666 3084 287 
Q 2609 -91 1734 -91 
Q 1441 -91 1130 -33 
Q 819 25 488 141 
L 488 750 
Q 750 597 1062 519 
Q 1375 441 1716 441 
Q 2309 441 2620 675 
Q 2931 909 2931 1356 
Q 2931 1769 2642 2001 
Q 2353 2234 1838 2234 
L 1294 2234 
L 1294 2753 
L 1863 2753 
Q 2328 2753 2575 2939 
Q 2822 3125 2822 3475 
Q 2822 3834 2567 4026 
Q 2313 4219 1838 4219 
Q 1578 4219 1281 4162 
Q 984 4106 628 3988 
L 628 4550 
Q 988 4650 1302 4700 
Q 1616 4750 1894 4750 
Q 2613 4750 3031 4423 
Q 3450 4097 3450 3541 
Q 3450 3153 3228 2886 
Q 3006 2619 2597 2516 
z
" transform="scale(0.015625)"/>
      <path id="DejaVuSans-32" d="M 1228 531 
L 3431 531 
L 3431 0 
L 469 0 
L 469 531 
Q 828 903 1448 1529 
Q 2069 2156 2228 2338 
Q 2531 2678 2651 2914 
Q 2772 3150 2772 3378 
Q 2772 3750 2511 3984 
Q 2250 4219 1831 4219 
Q 1534 4219 1204 4116 
Q 875 4013 500 3803 
L 500 4441 
Q 881 4594 1212 4672 
Q 1544 4750 1819 4750 
Q 2544 4750 2975 4387 
Q 3406 4025 3406 3419 
Q 3406 3131 3298 2873 
Q 3191 2616 2906 2266 
Q 2828 2175 2409 1742 
Q 1991 1309 1228 531 
z
" transform="scale(0.015625)"/>
     </defs>
     <use xlink:href="#DejaVuSans-56"/>
     <use xlink:href="#DejaVuSans-61" transform="translate(60.658203 0)"/>
     <use xlink:href="#DejaVuSans-72" transform="translate(121.9375 0)"/>
     <use xlink:href="#DejaVuSans-69" transform="translate(163.050781 0)"/>
     <use xlink:href="#DejaVuSans-6e" transform="translate(190.833984 0)"/>
     <use xlink:href="#DejaVuSans-74" transform="translate(254.212891 0)"/>
     <use xlink:href="#DejaVuSans-33" transform="translate(293.421875 0)"/>
     <use xlink:href="#DejaVuSans-32" transform="translate(357.044922 0)"/>
    </g>
    <!-- (size of Metadata) -->
    <g transform="translate(231.874687 96.23775) scale(0.12 -0.12)">
     <defs>
      <path id="DejaVuSans-28" d="M 1984 4856 
Q 1566 4138 1362 3434 
Q 1159 2731 1159 2009 
Q 1159 1288 1364 580 
Q 1569 -128 1984 -844 
L 1484 -844 
Q 1016 -109 783 600 
Q 550 1309 550 2009 
Q 550 2706 781 3412 
Q 1013 4119 1484 4856 
L 1984 4856 
z
" transform="scale(0.015625)"/>
      <path id="DejaVuSans-73" d="M 2834 3397 
L 2834 2853 
Q 2591 2978 2328 3040 
Q 2066 3103 1784 3103 
Q 1356 3103 1142 2972 
Q 928 2841 928 2578 
Q 928 2378 1081 2264 
Q 1234 2150 1697 2047 
L 1894 2003 
Q 2506 1872 2764 1633 
Q 3022 1394 3022 966 
Q 3022 478 2636 193 
Q 2250 -91 1575 -91 
Q 1294 -91 989 -36 
Q 684 19 347 128 
L 347 722 
Q 666 556 975 473 
Q 1284 391 1588 391 
Q 1994 391 2212 530 
Q 2431 669 2431 922 
Q 2431 1156 2273 1281 
Q 2116 1406 1581 1522 
L 1381 1569 
Q 847 1681 609 1914 
Q 372 2147 372 2553 
Q 372 3047 722 3315 
Q 1072 3584 1716 3584 
Q 2034 3584 2315 3537 
Q 2597 3491 2834 3397 
z
" transform="scale(0.015625)"/>
      <path id="DejaVuSans-7a" d="M 353 3500 
L 3084 3500 
L 3084 2975 
L 922 459 
L 3084 459 
L 3084 0 
L 275 0 
L 275 525 
L 2438 3041 
L 353 3041 
L 353 3500 
z
" transform="scale(0.015625)"/>
      <path id="DejaVuSans-65" d="M 3597 1894 
L 3597 1613 
L 953 1613 
Q 991 1019 1311 708 
Q 1631 397 2203 397 
Q 2534 397 2845 478 
Q 3156 559 3463 722 
L 3463 178 
Q 3153 47 2828 -22 
Q 2503 -91 2169 -91 
Q 1331 -91 842 396 
Q 353 884 353 1716 
Q 353 2575 817 3079 
Q 1281 3584 2069 3584 
Q 2775 3584 3186 3129 
Q 3597 2675 3597 1894 
z
M 3022 2063 
Q 3016 2534 2758 2815 
Q 2500 3097 2075 3097 
Q 1594 3097 1305 2825 
Q 1016 2553 972 2059 
L 3022 2063 
z
" transform="scale(0.015625)"/>
      <path id="DejaVuSans-20" transform="scale(0.015625)"/>
      <path id="DejaVuSans-6f" d="M 1959 3097 
Q 1497 3097 1228 2736 
Q 959 2375 959 1747 
Q 959 1119 1226 758 
Q 1494 397 1959 397 
Q 2419 397 2687 759 
Q 2956 1122 2956 1747 
Q 2956 2369 2687 2733 
Q 2419 3097 1959 3097 
z
M 1959 3584 
Q 2709 3584 3137 3096 
Q 3566 2609 3566 1747 
Q 3566 888 3137 398 
Q 2709 -91 1959 -91 
Q 1206 -91 779 398 
Q 353 888 353 1747 
Q 353 2609 779 3096 
Q 1206 3584 1959 3584 
z
" transform="scale(0.015625)"/>
      <path id="DejaVuSans-66" d="M 2375 4863 
L 2375 4384 
L 1825 4384 
Q 1516 4384 1395 4259 
Q 1275 4134 1275 3809 
L 1275 3500 
L 2222 3500 
L 2222 3053 
L 1275 3053 
L 1275 0 
L 697 0 
L 697 3053 
L 147 3053 
L 147 3500 
L 697 3500 
L 697 3744 
Q 697 4328 969 4595 
Q 1241 4863 1831 4863 
L 2375 4863 
z
" transform="scale(0.015625)"/>
      <path id="DejaVuSans-4d" d="M 628 4666 
L 1569 4666 
L 2759 1491 
L 3956 4666 
L 4897 4666 
L 4897 0 
L 4281 0 
L 4281 4097 
L 3078 897 
L 2444 897 
L 1241 4097 
L 1241 0 
L 628 0 
L 628 4666 
z
" transform="scale(0.015625)"/>
      <path id="DejaVuSans-64" d="M 2906 2969 
L 2906 4863 
L 3481 4863 
L 3481 0 
L 2906 0 
L 2906 525 
Q 2725 213 2448 61 
Q 2172 -91 1784 -91 
Q 1150 -91 751 415 
Q 353 922 353 1747 
Q 353 2572 751 3078 
Q 1150 3584 1784 3584 
Q 2172 3584 2448 3432 
Q 2725 3281 2906 2969 
z
M 947 1747 
Q 947 1113 1208 752 
Q 1469 391 1925 391 
Q 2381 391 2643 752 
Q 2906 1113 2906 1747 
Q 2906 2381 2643 2742 
Q 2381 3103 1925 3103 
Q 1469 3103 1208 2742 
Q 947 2381 947 1747 
z
" transform="scale(0.015625)"/>
      <path id="DejaVuSans-29" d="M 513 4856 
L 1013 4856 
Q 1481 4119 1714 3412 
Q 1947 2706 1947 2009 
Q 1947 1309 1714 600 
Q 1481 -109 1013 -844 
L 513 -844 
Q 928 -128 1133 580 
Q 1338 1288 1338 2009 
Q 1338 2731 1133 3434 
Q 928 4138 513 4856 
z
" transform="scale(0.015625)"/>
     </defs>
     <use xlink:href="#DejaVuSans-28"/>
     <use xlink:href="#DejaVuSans-73" transform="translate(39.013672 0)"/>
     <use xlink:href="#DejaVuSans-69" transform="translate(91.113281 0)"/>
     <use xlink:href="#DejaVuSans-7a" transform="translate(118.896484 0)"/>
     <use xlink:href="#DejaVuSans-65" transform="translate(171.386719 0)"/>
     <use xlink:href="#DejaVuSans-20" transform="translate(232.910156 0)"/>
     <use xlink:href="#DejaVuSans-6f" transform="translate(264.697266 0)"/>
     <use xlink:href="#DejaVuSans-66" transform="translate(325.878906 0)"/>
     <use xlink:href="#DejaVuSans-20" transform="translate(361.083984 0)"/>
     <use xlink:href="#DejaVuSans-4d" transform="translate(392.871094 0)"/>
     <use xlink:href="#DejaVuSans-65" transform="translate(479.150391 0)"/>
     <use xlink:href="#DejaVuSans-74" transform="translate(540.673828 0)"/>
     <use xlink:href="#DejaVuSans-61" transform="translate(579.882812 0)"/>
     <use xlink:href="#DejaVuSans-64" transform="translate(641.162109 0)"/>
     <use xlink:href="#DejaVuSans-61" transform="translate(704.638672 0)"/>
     <use xlink:href="#DejaVuSans-74" transform="translate(765.917969 0)"/>
     <use xlink:href="#DejaVuSans-61" transform="translate(805.126953 0)"/>
     <use xlink:href="#DejaVuSans-29" transform="translate(866.40625 0)"/>
    </g>
   </g>
   <g id="text_2">
    <!-- Metadata message -->
    <g transform="translate(228.915 131.099063) scale(0.12 -0.12)">
     <defs>
      <path id="DejaVuSans-6d" d="M 3328 2828 
Q 3544 3216 3844 3400 
Q 4144 3584 4550 3584 
Q 5097 3584 5394 3201 
Q 5691 2819 5691 2113 
L 5691 0 
L 5113 0 
L 5113 2094 
Q 5113 2597 4934 2840 
Q 4756 3084 4391 3084 
Q 3944 3084 3684 2787 
Q 3425 2491 3425 1978 
L 3425 0 
L 2847 0 
L 2847 2094 
Q 2847 2600 2669 2842 
Q 2491 3084 2119 3084 
Q 1678 3084 1418 2786 
Q 1159 2488 1159 1978 
L 1159 0 
L 581 0 
L 581 3500 
L 1159 3500 
L 1159 2956 
Q 1356 3278 1631 3431 
Q 1906 3584 2284 3584 
Q 2666 3584 2933 3390 
Q 3200 3197 3328 2828 
z
" transform="scale(0.015625)"/>
      <path id="DejaVuSans-67" d="M 2906 1791 
Q 2906 2416 2648 2759 
Q 2391 3103 1925 3103 
Q 1463 3103 1205 2759 
Q 947 2416 947 1791 
Q 947 1169 1205 825 
Q 1463 481 1925 481 
Q 2391 481 2648 825 
Q 2906 1169 2906 1791 
z
M 3481 434 
Q 3481 -459 3084 -895 
Q 2688 -1331 1869 -1331 
Q 1566 -1331 1297 -1286 
Q 1028 -1241 775 -1147 
L 775 -588 
Q 1028 -725 1275 -790 
Q 1522 -856 1778 -856 
Q 2344 -856 2625 -561 
Q 2906 -266 2906 331 
L 2906 616 
Q 2728 306 2450 153 
Q 2172 0 1784 0 
Q 1141 0 747 490 
Q 353 981 353 1791 
Q 353 2603 747 3093 
Q 1141 3584 1784 3584 
Q 2172 3584 2450 3431 
Q 2728 3278 2906 2969 
L 2906 3500 
L 3481 3500 
L 3481 434 
z
" transform="scale(0.015625)"/>
     </defs>
     <use xlink:href="#DejaVuSans-4d"/>
     <use xlink:href="#DejaVuSans-65" transform="translate(86.279297 0)"/>
     <use xlink:href="#DejaVuSans-74" transform="translate(147.802734 0)"/>
     <use xlink:href="#DejaVuSans-61" transform="translate(187.011719 0)"/>
     <use xlink:href="#DejaVuSans-64" transform="translate(248.291016 0)"/>
     <use xlink:href="#DejaVuSans-61" transform="translate(311.767578 0)"/>
     <use xlink:href="#DejaVuSans-74" transform="translate(373.046875 0)"/>
     <use xlink:href="#DejaVuSans-61" transform="translate(412.255859 0)"/>
     <use xlink:href="#DejaVuSans-20" transform="translate(473.535156 0)"/>
     <use xlink:href="#DejaVuSans-6d" transform="translate(505.322266 0)"/>
     <use xlink:href="#DejaVuSans-65" transform="translate(602.734375 0)"/>
     <use xlink:href="#DejaVuSans-73" transform="translate(664.257812 0)"/>
     <use xlink:href="#DejaVuSans-73" transform="translate(716.357422 0)"/>
     <use xlink:href="#DejaVuSans-61" transform="translate(768.457031 0)"/>
     <use xlink:href="#DejaVuSans-67" transform="translate(829.736328 0)"/>
     <use xlink:href="#DejaVuSans-65" transform="translate(893.212891 0)"/>
    </g>
   </g>
   <g id="text_3">
    <!-- Varint32 -->
    <g transform="translate(260.960625 165.960375) scale(0.12 -0.12)">
     <use xlink:href="#DejaVuSans-56"/>
     <use xlink:href="#DejaVuSans-61" transform="translate(60.658203 0)"/>
     <use xlink:href="#DejaVuSans-72" transform="translate(121.9375 0)"/>
     <use xlink:href="#DejaVuSans-69" transform="translate(163.050781 0)"/>
     <use xlink:href="#DejaVuSans-6e" transform="translate(190.833984 0)"/>
     <use xlink:href="#DejaVuSans-74" transform="translate(254.212891 0)"/>
     <use xlink:href="#DejaVuSans-33" transform="translate(293.421875 0)"/>
     <use xlink:href="#DejaVuSans-32" transform="translate(357.044922 0)"/>
    </g>
    <!-- (size of Root Node) -->
    <g transform="translate(229.125937 179.39775) scale(0.12 -0.12)">
     <defs>
      <path id="DejaVuSans-52" d="M 2841 2188 
Q 3044 2119 3236 1894 
Q 3428 1669 3622 1275 
L 4263 0 
L 3584 0 
L 2988 1197 
Q 2756 1666 2539 1819 
Q 2322 1972 1947 1972 
L 1259 1972 
L 1259 0 
L 628 0 
L 628 4666 
L 2053 4666 
Q 2853 4666 3247 4331 
Q 3641 3997 3641 3322 
Q 3641 2881 3436 2590 
Q 3231 2300 2841 2188 
z
M 1259 4147 
L 1259 2491 
L 2053 2491 
Q 2509 2491 2742 2702 
Q 2975 2913 2975 3322 
Q 2975 3731 2742 3939 
Q 2509 4147 2053 4147 
L 1259 4147 
z
" transform="scale(0.015625)"/>
      <path id="DejaVuSans-4e" d="M 628 4666 
L 1478 4666 
L 3547 763 
L 3547 4666 
L 4159 4666 
L 4159 0 
L 3309 0 
L 1241 3903 
L 1241 0 
L 628 0 
L 628 4666 
z
" transform="scale(0.015625)"/>
     </defs>
     <use xlink:href="#DejaVuSans-28"/>
     <use xlink:href="#DejaVuSans-73" transform="translate(39.013672 0)"/>
     <use xlink:href="#DejaVuSans-69" transform="translate(91.113281 0)"/>
     <use xlink:href="#DejaVuSans-7a" transform="translate(118.896484 0)"/>
     <use xlink:href="#DejaVuSans-65" transform="translate(171.386719 0)"/>
     <use xlink:href="#DejaVuSans-20" transform="translate(232.910156 0)"/>
     <use xlink:href="#DejaVuSans-6f" transform="translate(264.697266 0)"/>
     <use xlink:href="#DejaVuSans-66" transform="translate(325.878906 0)"/>
     <use xlink:href="#DejaVuSans-20" transform="translate(361.083984 0)"/>
     <use xlink:href="#DejaVuSans-52" transform="translate(392.871094 0)"/>
     <use xlink:href="#DejaVuSans-6f" transform="translate(457.853516 0)"/>
     <use xlink:href="#DejaVuSans-6f" transform="translate(519.035156 0)"/>
     <use xlink:href="#DejaVuSans-74" transform="translate(580.216797 0)"/>
     <use xlink:href="#DejaVuSans-20" transform="translate(619.425781 0)"/>
     <use xlink:href="#DejaVuSans-4e" transform="translate(651.212891 0)"/>
     <use xlink:href="#DejaVuSans-6f" transform="translate(726.017578 0)"/>
     <use xlink:href="#DejaVuSans-64" transform="translate(787.199219 0)"/>
     <use xlink:href="#DejaVuSans-65" transform="translate(850.675781 0)"/>
     <use xlink:href="#DejaVuSans-29" transform="translate(912.199219 0)"/>
    </g>
   </g>
   <g id="text_4">
    <!-- Root Node message -->
    <g transform="translate(226.16625 214.259063) scale(0.12 -0.12)">
     <use xlink:href="#DejaVuSans-52"/>
     <use xlink:href="#DejaVuSans-6f" transform="translate(64.982422 0)"/>
     <use xlink:href="#DejaVuSans-6f" transform="translate(126.164062 0)"/>
     <use xlink:href="#DejaVuSans-74" transform="translate(187.345703 0)"/>
     <use xlink:href="#DejaVuSans-20" transform="translate(226.554688 0)"/>
     <use xlink:href="#DejaVuSans-4e" transform="translate(258.341797 0)"/>
     <use xlink:href="#DejaVuSans-6f" transform="translate(333.146484 0)"/>
     <use xlink:href="#DejaVuSans-64" transform="translate(394.328125 0)"/>
     <use xlink:href="#DejaVuSans-65" transform="translate(457.804688 0)"/>
     <use xlink:href="#DejaVuSans-20" transform="translate(519.328125 0)"/>
     <use xlink:href="#DejaVuSans-6d" transform="translate(551.115234 0)"/>
     <use xlink:href="#DejaVuSans-65" transform="translate(648.527344 0)"/>
     <use xlink:href="#DejaVuSans-73" transform="translate(710.050781 0)"/>
     <use xlink:href="#DejaVuSans-73" transform="translate(762.150391 0)"/>
     <use xlink:href="#DejaVuSans-61" transform="translate(814.25 0)"/>
     <use xlink:href="#DejaVuSans-67" transform="translate(875.529297 0)"/>
     <use xlink:href="#DejaVuSans-65" transform="translate(939.005859 0)"/>
    </g>
   </g>
   <g id="text_5">
    <!-- Varint32 -->
    <g transform="translate(260.960625 249.120375) scale(0.12 -0.12)">
     <use xlink:href="#DejaVuSans-56"/>
     <use xlink:href="#DejaVuSans-61" transform="translate(60.658203 0)"/>
     <use xlink:href="#DejaVuSans-72" transform="translate(121.9375 0)"/>
     <use xlink:href="#DejaVuSans-69" transform="translate(163.050781 0)"/>
     <use xlink:href="#DejaVuSans-6e" transform="translate(190.833984 0)"/>
     <use xlink:href="#DejaVuSans-74" transform="translate(254.212891 0)"/>
     <use xlink:href="#DejaVuSans-33" transform="translate(293.421875 0)"/>
     <use xlink:href="#DejaVuSans-32" transform="translate(357.044922 0)"/>
    </g>
    <!-- (size of Node 1) -->
    <g transform="translate(238.902187 262.55775) scale(0.12 -0.12)">
     <defs>
      <path id="DejaVuSans-31" d="M 794 531 
L 1825 531 
L 1825 4091 
L 703 3866 
L 703 4441 
L 1819 4666 
L 2450 4666 
L 2450 531 
L 3481 531 
L 3481 0 
L 794 0 
L 794 531 
z
" transform="scale(0.015625)"/>
     </defs>
     <use xlink:href="#DejaVuSans-28"/>
     <use xlink:href="#DejaVuSans-73" transform="translate(39.013672 0)"/>
     <use xlink:href="#DejaVuSans-69" transform="translate(91.113281 0)"/>
     <use xlink:href="#DejaVuSans-7a" transform="translate(118.896484 0)"/>
     <use xlink:href="#DejaVuSans-65" transform="translate(171.386719 0)"/>
     <use xlink:href="#DejaVuSans-20" transform="translate(232.910156 0)"/>
     <use xlink:href="#DejaVuSans-6f" transform="translate(264.697266 0)"/>
     <use xlink:href="#DejaVuSans-66" transform="translate(325.878906 0)"/>
     <use xlink:href="#DejaVuSans-20" transform="translate(361.083984 0)"/>
     <use xlink:href="#DejaVuSans-4e" transform="translate(392.871094 0)"/>
     <use xlink:href="#DejaVuSans-6f" transform="translate(467.675781 0)"/>
     <use xlink:href="#DejaVuSans-64" transform="translate(528.857422 0)"/>
     <use xlink:href="#DejaVuSans-65" transform="translate(592.333984 0)"/>
     <use xlink:href="#DejaVuSans-20" transform="translate(653.857422 0)"/>
     <use xlink:href="#DejaVuSans-31" transform="translate(685.644531 0)"/>
     <use xlink:href="#DejaVuSans-29" transform="translate(749.267578 0)"/>
    </g>
   </g>
   <g id="text_6">
    <!-- Node message 1 -->
    <g transform="translate(235.9425 297.419063) scale(0.12 -0.12)">
     <use xlink:href="#DejaVuSans-4e"/>
     <use xlink:href="#DejaVuSans-6f" transform="translate(74.804688 0)"/>
     <use xlink:href="#DejaVuSans-64" transform="translate(135.986328 0)"/>
     <use xlink:href="#DejaVuSans-65" transform="translate(199.462891 0)"/>
     <use xlink:href="#DejaVuSans-20" transform="translate(260.986328 0)"/>
     <use xlink:href="#DejaVuSans-6d" transform="translate(292.773438 0)"/>
     <use xlink:href="#DejaVuSans-65" transform="translate(390.185547 0)"/>
     <use xlink:href="#DejaVuSans-73" transform="translate(451.708984 0)"/>
     <use xlink:href="#DejaVuSans-73" transform="translate(503.808594 0)"/>
     <use xlink:href="#DejaVuSans-61" transform="translate(555.908203 0)"/>
     <use xlink:href="#DejaVuSans-67" transform="translate(617.1875 0)"/>
     <use xlink:href="#DejaVuSans-65" transform="translate(680.664062 0)"/>
     <use xlink:href="#DejaVuSans-20" transform="translate(742.1875 0)"/>
     <use xlink:href="#DejaVuSans-31" transform="translate(773.974609 0)"/>
    </g>
   </g>
   <g id="text_7">
    <!-- Varint32 -->
    <g transform="translate(260.960625 332.280375) scale(0.12 -0.12)">
     <use xlink:href="#DejaVuSans-56"/>
     <use xlink:href="#DejaVuSans-61" transform="translate(60.658203 0)"/>
     <use xlink:href="#DejaVuSans-72" transform="translate(121.9375 0)"/>
     <use xlink:href="#DejaVuSans-69" transform="translate(163.050781 0)"/>
     <use xlink:href="#DejaVuSans-6e" transform="translate(190.833984 0)"/>
     <use xlink:href="#DejaVuSans-74" transform="translate(254.212891 0)"/>
     <use xlink:href="#DejaVuSans-33" transform="translate(293.421875 0)"/>
     <use xlink:href="#DejaVuSans-32" transform="translate(357.044922 0)"/>
    </g>
    <!-- (size of Node 2) -->
    <g transform="translate(238.902187 345.71775) scale(0.12 -0.12)">
     <use xlink:href="#DejaVuSans-28"/>
     <use xlink:href="#DejaVuSans-73" transform="translate(39.013672 0)"/>
     <use xlink:href="#DejaVuSans-69" transform="translate(91.113281 0)"/>
     <use xlink:href="#DejaVuSans-7a" transform="translate(118.896484 0)"/>
     <use xlink:href="#DejaVuSans-65" transform="translate(171.386719 0)"/>
     <use xlink:href="#DejaVuSans-20" transform="translate(232.910156 0)"/>
     <use xlink:href="#DejaVuSans-6f" transform="translate(264.697266 0)"/>
     <use xlink:href="#DejaVuSans-66" transform="translate(325.878906 0)"/>
     <use xlink:href="#DejaVuSans-20" transform="translate(361.083984 0)"/>
     <use xlink:href="#DejaVuSans-4e" transform="translate(392.871094 0)"/>
     <use xlink:href="#DejaVuSans-6f" transform="translate(467.675781 0)"/>
     <use xlink:href="#DejaVuSans-64" transform="translate(528.857422 0)"/>
     <use xlink:href="#DejaVuSans-65" transform="translate(592.333984 0)"/>
     <use xlink:href="#DejaVuSans-20" transform="translate(653.857422 0)"/>
     <use xlink:href="#DejaVuSans-32" transform="translate(685.644531 0)"/>
     <use xlink:href="#DejaVuSans-29" transform="translate(749.267578 0)"/>
    </g>
   </g>
   <g id="text_8">
    <!-- Node message 2 -->
    <g transform="translate(235.9425 380.579063) scale(0.12 -0.12)">
     <use xlink:href="#DejaVuSans-4e"/>
     <use xlink:href="#DejaVuSans-6f" transform="translate(74.804688 0)"/>
     <use xlink:href="#DejaVuSans-64" transform="translate(135.986328 0)"/>
     <use xlink:href="#DejaVuSans-65" transform="translate(199.462891 0)"/>
     <use xlink:href="#DejaVuSans-20" transform="translate(260.986328 0)"/>
     <use xlink:href="#DejaVuSans-6d" transform="translate(292.773438 0)"/>
     <use xlink:href="#DejaVuSans-65" transform="translate(390.185547 0)"/>
     <use xlink:href="#DejaVuSans-73" transform="translate(451.708984 0)"/>
     <use xlink:href="#DejaVuSans-73" transform="translate(503.808594 0)"/>
     <use xlink:href="#DejaVuSans-61" transform="translate(555.908203 0)"/>
     <use xlink:href="#DejaVuSans-67" transform="translate(617.1875 0)"/>
     <use xlink:href="#DejaVuSans-65" transform="translate(680.664062 0)"/>
     <use xlink:href="#DejaVuSans-20" transform="translate(742.1875 0)"/>
     <use xlink:href="#DejaVuSans-32" transform="translate(773.974609 0)"/>
    </g>
   </g>
   <g id="text_9">
    <!-- Varint32 -->
    <g transform="translate(260.960625 415.440375) scale(0.12 -0.12)">
     <use xlink:href="#DejaVuSans-56"/>
     <use xlink:href="#DejaVuSans-61" transform="translate(60.658203 0)"/>
     <use xlink:href="#DejaVuSans-72" transform="translate(121.9375 0)"/>
     <use xlink:href="#DejaVuSans-69" transform="translate(163.050781 0)"/>
     <use xlink:href="#DejaVuSans-6e" transform="translate(190.833984 0)"/>
     <use xlink:href="#DejaVuSans-74" transform="translate(254.212891 0)"/>
     <use xlink:href="#DejaVuSans-33" transform="translate(293.421875 0)"/>
     <use xlink:href="#DejaVuSans-32" transform="translate(357.044922 0)"/>
    </g>
    <!-- (size of Node 3) -->
    <g transform="translate(238.902187 428.87775) scale(0.12 -0.12)">
     <use xlink:href="#DejaVuSans-28"/>
     <use xlink:href="#DejaVuSans-73" transform="translate(39.013672 0)"/>
     <use xlink:href="#DejaVuSans-69" transform="translate(91.113281 0)"/>
     <use xlink:href="#DejaVuSans-7a" transform="translate(118.896484 0)"/>
     <use xlink:href="#DejaVuSans-65" transform="translate(171.386719 0)"/>
     <use xlink:href="#DejaVuSans-20" transform="translate(232.910156 0)"/>
     <use xlink:href="#DejaVuSans-6f" transform="translate(264.697266 0)"/>
     <use xlink:href="#DejaVuSans-66" transform="translate(325.878906 0)"/>
     <use xlink:href="#DejaVuSans-20" transform="translate(361.083984 0)"/>
     <use xlink:href="#DejaVuSans-4e" transform="translate(392.871094 0)"/>
     <use xlink:href="#DejaVuSans-6f" transform="translate(467.675781 0)"/>
     <use xlink:href="#DejaVuSans-64" transform="translate(528.857422 0)"/>
     <use xlink:href="#DejaVuSans-65" transform="translate(592.333984 0)"/>
     <use xlink:href="#DejaVuSans-20" transform="translate(653.857422 0)"/>
     <use xlink:href="#DejaVuSans-33" transform="translate(685.644531 0)"/>
     <use xlink:href="#DejaVuSans-29" transform="translate(749.267578 0)"/>
    </g>
   </g>
   <g id="text_10">
    <!-- Node message 3 -->
    <g transform="translate(235.9425 463.739063) scale(0.12 -0.12)">
     <use xlink:href="#DejaVuSans-4e"/>
     <use xlink:href="#DejaVuSans-6f" transform="translate(74.804688 0)"/>
     <use xlink:href="#DejaVuSans-64" transform="translate(135.986328 0)"/>
     <use xlink:href="#DejaVuSans-65" transform="translate(199.462891 0)"/>
     <use xlink:href="#DejaVuSans-20" transform="translate(260.986328 0)"/>
     <use xlink:href="#DejaVuSans-6d" transform="translate(292.773438 0)"/>
     <use xlink:href="#DejaVuSans-65" transform="translate(390.185547 0)"/>
     <use xlink:href="#DejaVuSans-73" transform="translate(451.708984 0)"/>
     <use xlink:href="#DejaVuSans-73" transform="translate(503.808594 0)"/>
     <use xlink:href="#DejaVuSans-61" transform="translate(555.908203 0)"/>
     <use xlink:href="#DejaVuSans-67" transform="translate(617.1875 0)"/>
     <use xlink:href="#DejaVuSans-65" transform="translate(680.664062 0)"/>
     <use xlink:href="#DejaVuSans-20" transform="translate(742.1875 0)"/>
     <use xlink:href="#DejaVuSans-33" transform="translate(773.974609 0)"/>
    </g>
   </g>
   <g id="text_11">
    <!-- Varint32 -->
    <g transform="translate(260.960625 498.600375) scale(0.12 -0.12)">
     <use xlink:href="#DejaVuSans-56"/>
     <use xlink:href="#DejaVuSans-61" transform="translate(60.658203 0)"/>
     <use xlink:href="#DejaVuSans-72" transform="translate(121.9375 0)"/>
     <use xlink:href="#DejaVuSans-69" transform="translate(163.050781 0)"/>
     <use xlink:href="#DejaVuSans-6e" transform="translate(190.833984 0)"/>
     <use xlink:href="#DejaVuSans-74" transform="translate(254.212891 0)"/>
     <use xlink:href="#DejaVuSans-33" transform="translate(293.421875 0)"/>
     <use xlink:href="#DejaVuSans-32" transform="translate(357.044922 0)"/>
    </g>
    <!-- (size of Node 4) -->
    <g transform="translate(238.902187 512.03775) scale(0.12 -0.12)">
     <defs>
      <path id="DejaVuSans-34" d="M 2419 4116 
L 825 1625 
L 2419 1625 
L 2419 4116 
z
M 2253 4666 
L 3047 4666 
L 3047 1625 
L 3713 1625 
L 3713 1100 
L 3047 1100 
L 3047 0 
L 2419 0 
L 2419 1100 
L 313 1100 
L 313 1709 
L 2253 4666 
z
" transform="scale(0.015625)"/>
     </defs>
     <use xlink:href="#DejaVuSans-28"/>
     <use xlink:href="#DejaVuSans-73" transform="translate(39.013672 0)"/>
     <use xlink:href="#DejaVuSans-69" transform="translate(91.113281 0)"/>
     <use xlink:href="#DejaVuSans-7a" transform="translate(118.896484 0)"/>
     <use xlink:href="#DejaVuSans-65" transform="translate(171.386719 0)"/>
     <use xlink:href="#DejaVuSans-20" transform="translate(232.910156 0)"/>
     <use xlink:href="#DejaVuSans-6f" transform="translate(264.697266 0)"/>
     <use xlink:href="#DejaVuSans-66" transform="translate(325.878906 0)"/>
     <use xlink:href="#DejaVuSans-20" transform="translate(361.083984 0)"/>
     <use xlink:href="#DejaVuSans-4e" transform="translate(392.871094 0)"/>
     <use xlink:href="#DejaVuSans-6f" transform="translate(467.675781 0)"/>
     <use xlink:href="#DejaVuSans-64" transform="translate(528.857422 0)"/>
     <use xlink:href="#DejaVuSans-65" transform="translate(592.333984 0)"/>
     <use xlink:href="#DejaVuSans-20" transform="translate(653.857422 0)"/>
     <use xlink:href="#DejaVuSans-34" transform="translate(685.644531 0)"/>
     <use xlink:href="#DejaVuSans-29" transform="translate(749.267578 0)"/>
    </g>
   </g>
   <g id="text_12">
    <!-- Node message 4 -->
    <g transform="translate(235.9425 546.899063) scale(0.12 -0.12)">
     <use xlink:href="#DejaVuSans-4e"/>
     <use xlink:href="#DejaVuSans-6f" transform="translate(74.804688 0)"/>
     <use xlink:href="#DejaVuSans-64" transform="translate(135.986328 0)"/>
     <use xlink:href="#DejaVuSans-65" transform="translate(199.462891 0)"/>
     <use xlink:href="#DejaVuSans-20" transform="translate(260.986328 0)"/>
     <use xlink:href="#DejaVuSans-6d" transform="translate(292.773438 0)"/>
     <use xlink:href="#DejaVuSans-65" transform="translate(390.185547 0)"/>
     <use xlink:href="#DejaVuSans-73" transform="translate(451.708984 0)"/>
     <use xlink:href="#DejaVuSans-73" transform="translate(503.808594 0)"/>
     <use xlink:href="#DejaVuSans-61" transform="translate(555.908203 0)"/>
     <use xlink:href="#DejaVuSans-67" transform="translate(617.1875 0)"/>
     <use xlink:href="#DejaVuSans-65" transform="translate(680.664062 0)"/>
     <use xlink:href="#DejaVuSans-20" transform="translate(742.1875 0)"/>
     <use xlink:href="#DejaVuSans-34" transform="translate(773.974609 0)"/>
    </g>
   </g>
   <g id="text_13">
    <!-- Varint32 -->
    <g transform="translate(260.960625 581.760375) scale(0.12 -0.12)">
     <use xlink:href="#DejaVuSans-56"/>
     <use xlink:href="#DejaVuSans-61" transform="translate(60.658203 0)"/>
     <use xlink:href="#DejaVuSans-72" transform="translate(121.9375 0)"/>
     <use xlink:href="#DejaVuSans-69" transform="translate(163.050781 0)"/>
     <use xlink:href="#DejaVuSans-6e" transform="translate(190.833984 0)"/>
     <use xlink:href="#DejaVuSans-74" transform="translate(254.212891 0)"/>
     <use xlink:href="#DejaVuSans-33" transform="translate(293.421875 0)"/>
     <use xlink:href="#DejaVuSans-32" transform="translate(357.044922 0)"/>
    </g>
    <!-- (size of Node 5) -->
    <g transform="translate(238.902187 595.19775) scale(0.12 -0.12)">
     <defs>
      <path id="DejaVuSans-35" d="M 691 4666 
L 3169 4666 
L 3169 4134 
L 1269 4134 
L 1269 2991 
Q 1406 3038 1543 3061 
Q 1681 3084 1819 3084 
Q 2600 3084 3056 2656 
Q 3513 2228 3513 1497 
Q 3513 744 3044 326 
Q 2575 -91 1722 -91 
Q 1428 -91 1123 -41 
Q 819 9 494 109 
L 494 744 
Q 775 591 1075 516 
Q 1375 441 1709 441 
Q 2250 441 2565 725 
Q 2881 1009 2881 1497 
Q 2881 1984 2565 2268 
Q 2250 2553 1709 2553 
Q 1456 2553 1204 2497 
Q 953 2441 691 2322 
L 691 4666 
z
" transform="scale(0.015625)"/>
     </defs>
     <use xlink:href="#DejaVuSans-28"/>
     <use xlink:href="#DejaVuSans-73" transform="translate(39.013672 0)"/>
     <use xlink:href="#DejaVuSans-69" transform="translate(91.113281 0)"/>
     <use xlink:href="#DejaVuSans-7a" transform="translate(118.896484 0)"/>
     <use xlink:href="#DejaVuSans-65" transform="translate(171.386719 0)"/>
     <use xlink:href="#DejaVuSans-20" transform="translate(232.910156 0)"/>
     <use xlink:href="#DejaVuSans-6f" transform="translate(264.697266 0)"/>
     <use xlink:href="#DejaVuSans-66" transform="translate(325.878906 0)"/>
     <use xlink:href="#DejaVuSans-20" transform="translate(361.083984 0)"/>
     <use xlink:href="#DejaVuSans-4e" transform="translate(392.871094 0)"/>
     <use xlink:href="#DejaVuSans-6f" transform="translate(467.675781 0)"/>
     <use xlink:href="#DejaVuSans-64" transform="translate(528.857422 0)"/>
     <use xlink:href="#DejaVuSans-65" transform="translate(592.333984 0)"/>
     <use xlink:href="#DejaVuSans-20" transform="translate(653.857422 0)"/>
     <use xlink:href="#DejaVuSans-35" transform="translate(685.644531 0)"/>
     <use xlink:href="#DejaVuSans-29" transform="translate(749.267578 0)"/>
    </g>
   </g>
   <g id="text_14">
    <!-- Node message 5 -->
    <g transform="translate(235.9425 630.059063) scale(0.12 -0.12)">
     <use xlink:href="#DejaVuSans-4e"/>
     <use xlink:href="#DejaVuSans-6f" transform="translate(74.804688 0)"/>
     <use xlink:href="#DejaVuSans-64" transform="translate(135.986328 0)"/>
     <use xlink:href="#DejaVuSans-65" transform="translate(199.462891 0)"/>
     <use xlink:href="#DejaVuSans-20" transform="translate(260.986328 0)"/>
     <use xlink:href="#DejaVuSans-6d" transform="translate(292.773438 0)"/>
     <use xlink:href="#DejaVuSans-65" transform="translate(390.185547 0)"/>
     <use xlink:href="#DejaVuSans-73" transform="translate(451.708984 0)"/>
     <use xlink:href="#DejaVuSans-73" transform="translate(503.808594 0)"/>
     <use xlink:href="#DejaVuSans-61" transform="translate(555.908203 0)"/>
     <use xlink:href="#DejaVuSans-67" transform="translate(617.1875 0)"/>
     <use xlink:href="#DejaVuSans-65" transform="translate(680.664062 0)"/>
     <use xlink:href="#DejaVuSans-20" transform="translate(742.1875 0)"/>
     <use xlink:href="#DejaVuSans-35" transform="translate(773.974609 0)"/>
    </g>
   </g>
   <g id="text_15">
    <!-- Core Dump Serialization Layout -->
    <g transform="translate(175.317812 17.837813) scale(0.14 -0.14)">
     <defs>
      <path id="DejaVuSans-43" d="M 4122 4306 
L 4122 3641 
Q 3803 3938 3442 4084 
Q 3081 4231 2675 4231 
Q 1875 4231 1450 3742 
Q 1025 3253 1025 2328 
Q 1025 1406 1450 917 
Q 1875 428 2675 428 
Q 3081 428 3442 575 
Q 3803 722 4122 1019 
L 4122 359 
Q 3791 134 3420 21 
Q 3050 -91 2638 -91 
Q 1578 -91 968 557 
Q 359 1206 359 2328 
Q 359 3453 968 4101 
Q 1578 4750 2638 4750 
Q 3056 4750 3426 4639 
Q 3797 4528 4122 4306 
z
" transform="scale(0.015625)"/>
      <path id="DejaVuSans-44" d="M 1259 4147 
L 1259 519 
L 2022 519 
Q 2988 519 3436 956 
Q 3884 1394 3884 2338 
Q 3884 3275 3436 3711 
Q 2988 4147 2022 4147 
L 1259 4147 
z
M 628 4666 
L 1925 4666 
Q 3281 4666 3915 4102 
Q 4550 3538 4550 2338 
Q 4550 1131 3912 565 
Q 3275 0 1925 0 
L 628 0 
L 628 4666 
z
" transform="scale(0.015625)"/>
      <path id="DejaVuSans-75" d="M 544 1381 
L 544 3500 
L 1119 3500 
L 1119 1403 
Q 1119 906 1312 657 
Q 1506 409 1894 409 
Q 2359 409 2629 706 
Q 2900 1003 2900 1516 
L 2900 3500 
L 3475 3500 
L 3475 0 
L 2900 0 
L 2900 538 
Q 2691 219 2414 64 
Q 2138 -91 1772 -91 
Q 1169 -91 856 284 
Q 544 659 544 1381 
z
M 1991 3584 
L 1991 3584 
z
" transform="scale(0.015625)"/>
      <path id="DejaVuSans-70" d="M 1159 525 
L 1159 -1331 
L 581 -1331 
L 581 3500 
L 1159 3500 
L 1159 2969 
Q 1341 3281 1617 3432 
Q 1894 3584 2278 3584 
Q 2916 3584 3314 3078 
Q 3713 2572 3713 1747 
Q 3713 922 3314 415 
Q 2916 -91 2278 -91 
Q 1894 -91 1617 61 
Q 1341 213 1159 525 
z
M 3116 1747 
Q 3116 2381 2855 2742 
Q 2594 3103 2138 3103 
Q 1681 3103 1420 2742 
Q 1159 2381 1159 1747 
Q 1159 1113 1420 752 
Q 1681 391 2138 391 
Q 2594 391 2855 752 
Q 3116 1113 3116 1747 
z
" transform="scale(0.015625)"/>
      <path id="DejaVuSans-53" d="M 3425 4513 
L 3425 3897 
Q 3066 4069 2747 4153 
Q 2428 4238 2131 4238 
Q 1616 4238 1336 4038 
Q 1056 3838 1056 3469 
Q 1056 3159 1242 3001 
Q 1428 2844 1947 2747 
L 2328 2669 
Q 3034 2534 3370 2195 
Q 3706 1856 3706 1288 
Q 3706 609 3251 259 
Q 2797 -91 1919 -91 
Q 1588 -91 1214 -16 
Q 841 59 441 206 
L 441 856 
Q 825 641 1194 531 
Q 1563 422 1919 422 
Q 2459 422 2753 634 
Q 3047 847 3047 1241 
Q 3047 1584 2836 1778 
Q 2625 1972 2144 2069 
L 1759 2144 
Q 1053 2284 737 2584 
Q 422 2884 422 3419 
Q 422 4038 858 4394 
Q 1294 4750 2059 4750 
Q 2388 4750 2728 4690 
Q 3069 4631 3425 4513 
z
" transform="scale(0.015625)"/>
      <path id="DejaVuSans-6c" d="M 603 4863 
L 1178 4863 
L 1178 0 
L 603 0 
L 603 4863 
z
" transform="scale(0.015625)"/>
      <path id="DejaVuSans-4c" d="M 628 4666 
L 1259 4666 
L 1259 531 
L 3531 531 
L 3531 0 
L 628 0 
L 628 4666 
z
" transform="scale(0.015625)"/>
      <path id="DejaVuSans-79" d="M 2059 -325 
Q 1816 -950 1584 -1140 
Q 1353 -1331 966 -1331 
L 506 -1331 
L 506 -850 
L 844 -850 
Q 1081 -850 1212 -737 
Q 1344 -625 1503 -206 
L 1606 56 
L 191 3500 
L 800 3500 
L 1894 763 
L 2988 3500 
L 3597 3500 
L 2059 -325 
z
" transform="scale(0.015625)"/>
     </defs>
     <use xlink:href="#DejaVuSans-43"/>
     <use xlink:href="#DejaVuSans-6f" transform="translate(69.824219 0)"/>
     <use xlink:href="#DejaVuSans-72" transform="translate(131.005859 0)"/>
     <use xlink:href="#DejaVuSans-65" transform="translate(169.869141 0)"/>
     <use xlink:href="#DejaVuSans-20" transform="translate(231.392578 0)"/>
     <use xlink:href="#DejaVuSans-44" transform="translate(263.179688 0)"/>
     <use xlink:href="#DejaVuSans-75" transform="translate(340.181641 0)"/>
     <use xlink:href="#DejaVuSans-6d" transform="translate(403.560547 0)"/>
     <use xlink:href="#DejaVuSans-70" transform="translate(500.972656 0)"/>
     <use xlink:href="#DejaVuSans-20" transform="translate(564.449219 0)"/>
     <use xlink:href="#DejaVuSans-53" transform="translate(596.236328 0)"/>
     <use xlink:href="#DejaVuSans-65" transform="translate(659.712891 0)"/>
     <use xlink:href="#DejaVuSans-72" transform="translate(721.236328 0)"/>
     <use xlink:href="#DejaVuSans-69" transform="translate(762.349609 0)"/>
     <use xlink:href="#DejaVuSans-61" transform="translate(790.132812 0)"/>
     <use xlink:href="#DejaVuSans-6c" transform="translate(851.412109 0)"/>
     <use xlink:href="#DejaVuSans-69" transform="translate(879.195312 0)"/>
     <use xlink:href="#DejaVuSans-7a" transform="translate(906.978516 0)"/>
     <use xlink:href="#DejaVuSans-61" transform="translate(959.46875 0)"/>
     <use xlink:href="#DejaVuSans-74" transform="translate(1020.748047 0)"/>
     <use xlink:href="#DejaVuSans-69" transform="translate(1059.957031 0)"/>
     <use xlink:href="#DejaVuSans-6f" transform="translate(1087.740234 0)"/>
     <use xlink:href="#DejaVuSans-6e" transform="translate(1148.921875 0)"/>
     <use xlink:href="#DejaVuSans-20" transform="translate(1212.300781 0)"/>
     <use xlink:href="#DejaVuSans-4c" transform="translate(1244.087891 0)"/>
     <use xlink:href="#DejaVuSans-61" transform="translate(1299.800781 0)"/>
     <use xlink:href="#DejaVuSans-79" transform="translate(1361.080078 0)"/>
     <use xlink:href="#DejaVuSans-6f" transform="translate(1420.259766 0)"/>
     <use xlink:href="#DejaVuSans-75" transform="translate(1481.441406 0)"/>
     <use xlink:href="#DejaVuSans-74" transform="translate(1544.820312 0)"/>
    </g>
   </g>
  </g>
 </g>
 <defs>
  <clipPath id="p68d68ffb07">
   <rect x="7.2" y="23.837813" width="558" height="665.28"/>
  </clipPath>
 </defs>
</svg>
