<?xml version="1.0" encoding="UTF-8" standalone="no"?>
<svg
   version="1.1"
   width="128"
   height="104"
   viewBox="0 0 287.31353 234.01733"
   id="svg8"
   xmlns="http://www.w3.org/2000/svg">
   <style>
        path {
            fill: #000;
        }
        @media (prefers-color-scheme: dark) {
            path {
                fill: #fff;
            }
        }
    </style>
  <path
     d="m 66.064278,58.408399 c 0,3.770667 -3.057333,6.828 -6.828,6.828 -3.770666,0 -6.828,-3.057333 -6.828,-6.828 0,-3.770667 3.057334,-6.828 6.828,-6.828 3.770667,0 6.828,3.057333 6.828,6.828"
     id="path2"
     style="stroke-width:1.33333" />
  <path
     d="m 272.58507,76.029332 c -3.95066,21.065333 -22.24666,28.075998 -22.992,28.353328 l -5.63066,1.752 c -1.85867,0.57867 -2.504,2.88134 -1.216,4.34134 l 2.944,3.32 c 2.04133,2.40133 1.89733,4.25333 1.89733,7.144 v 91.468 c -1.212,1.956 -6.51733,8.19866 -24.83067,8.19866 -10.34266,0 -15.95866,-2.62933 -18.848,-4.83466 -1.01733,-0.776 -1.65733,-1.94134 -1.75866,-3.2 -0.056,-0.68134 0.012,-1.99467 1.08266,-3.12667 1.19334,-1.26133 2.76,-2.43733 4.416,-3.684 4.14534,-3.116 9.82134,-7.38267 9.82134,-14.96 v -11.97467 l -0.0213,-1.31333 c -0.0467,-3.04267 -2.52266,-5.48533 -5.56533,-5.492 l -1.21067,-0.001 c -16.416,-0.0333 -25.13199,-8.83067 -32.82133,-16.592 -5.424,-5.47734 -10.55066,-10.652 -17.57333,-10.652 h -53.78667 c -4.47066,0 -8.094663,3.624 -8.094663,8.09466 v 59.84 c -0.866666,1.64 -5.449333,7.896 -24.830666,7.896 -12.129333,0 -17.487999,-2.81066 -19.601333,-4.48533 -1.670666,-1.32533 -1.956,-3.812 -0.666666,-5.78533 1.626666,-2.49067 4.454666,-4.98934 7.192,-7.40667 5.225333,-4.61867 11.149333,-9.85333 11.149333,-17.50533 v -33.68134 c 0,-1.23333 0.754666,-2.33066 1.904,-2.78 4.439999,-1.736 14.246666,-7.12933 14.246666,-20.91466 0,-12.82534 -8.741333,-15.92667 -13.637333,-16.65734 -1.453333,-0.216 -2.513333,-1.476 -2.513333,-2.94533 v -4.40667 c 0,-5.350662 -4.338667,-9.689329 -9.689333,-9.689329 h -28.064 c -10.994666,0 -17.543999,-2.681333 -19.467999,-7.971999 -1.546667,-4.252 -2.212,-9.801333 4.572,-18.745333 L 39.658412,40.230666 c 1.932,-2.56 3.016,-5.593333 3.136,-8.772 0.08533,-2.276 0.433333,-6.731999 1.790667,-10.999999 2.244,-7.049333 5.696,-7.049333 6.994666,-7.049333 2.368,0 3.592,1.585333 6.306667,6.674666 2.414666,4.529333 6.065333,11.376 14.054666,11.376 7.125333,0 10.582666,-4.845333 12.870666,-8.053333 C 87.498411,19.64 92.001077,14.369333 97.853077,16.32 c 4.216003,1.405333 5.852003,3.510667 5.860003,9.341333 0.007,4.442667 -1,6.725333 -2.38134,9.884 -1.817329,4.148 -4.078663,9.313333 -4.078663,19.043999 0,8.797334 7.982663,27.685333 31.382663,29.061333 0.952,0.056 1.78134,0.672 2.04534,1.589333 2.69866,9.372 13.708,38.568002 46.152,38.568002 35.45466,0 37.14933,-28.653335 36.79199,-37.761335 -0.0493,-1.261333 0.96934,-2.302667 2.232,-2.302667 h 9.49067 c 2.892,0 5.66533,-1.226666 7.60667,-3.366666 l 33.25733,-36.615999 c 1.016,-1.118667 2.85467,-0.918667 3.56,0.418666 3.06667,5.814667 5.808,15.876 2.81333,31.849333 M 278.29441,32.636 c -1.94,-2.569334 -4.69467,-4.485334 -7.86934,-5.025334 -4.248,-0.721333 -8.348,0.758667 -11.13466,3.824 l -33.99467,37.430666 c -0.85067,0.934667 -2.056,1.469333 -3.32,1.469333 h -90.60933 c -17.104,0 -20.70267,-13.155999 -20.70267,-15.745333 0,-6.922666 1.368,-10.047999 2.952,-13.665333 1.644,-3.755999 3.508,-8.011999 3.508,-15.262666 0,-16.7373327 -13.22133,-22.1519992 -19.625329,-22.1519992 -14.965333,0 -20.373333,7.5786662 -23.604,12.1093332 -0.981333,1.401333 -2.088,1.62 -3.104,0.121333 -0.381333,-0.674667 -0.756,-1.376 -1.070666,-1.965333 C 66.973078,8.622667 62.374412,5.0673998e-7 51.579745,5.0673998e-7 42.329079,5.0673998e-7 35.121079,5.974667 31.806412,16.392 c -1.746666,5.489333 -2.277333,10.949333 -2.412,14.561333 -0.01733,0.426667 -0.168,0.84 -0.441333,1.2 L 8.2944129,59.541332 C 0.1504131,70.278665 -1.9682535,80.555998 1.8144131,90.959998 5.8677463,102.10666 16.658413,107.76 33.886412,107.76 h 20.965333 c 1.865333,0 3.377333,1.512 3.377333,3.37733 V 185.424 c 0,1.60533 -3.984,5.12666 -6.62,7.456 -3.243999,2.86666 -6.919999,6.116 -9.537333,10.12133 -5.105333,7.81333 -3.573333,17.97333 3.564,23.63066 6.186667,4.9 15.584,7.38534 27.930666,7.38534 33.886669,0 37.807999,-17.09867 38.143999,-19.04933 l 0.0973,-0.564 V 161.66 c 0,-1.91867 1.55467,-3.47334 3.47334,-3.47334 h 44.99733 c 1.43067,0 5.412,4.01867 8.048,6.67867 6.98,7.04667 17.036,17.2 33.784,19.88933 1.11333,0.18 1.94933,1.11334 1.94933,2.24 v 3.80667 c 0,0.88267 -2.69067,2.90267 -4.468,4.24133 -1.93467,1.45334 -4.128,3.10267 -6.1,5.18667 -3.392,3.584 -5.108,8.47733 -4.708,13.42267 0.408,5.04533 2.95467,9.70266 6.98933,12.77999 6.59334,5.03334 15.672,7.58534 26.984,7.58534 32.21067,0 37.51867,-16.584 38.01867,-18.47467 l 0.22267,-0.84133 V 119.704 c 0,-1.54267 -0.12667,-2.95867 -0.336,-4.24134 -0.14534,-0.896 0.24933,-1.792 1.02133,-2.26666 8.17867,-5.03334 20.496,-15.573335 24.08267,-34.694668 4.43733,-23.657333 -1.48667,-37.930666 -7.472,-45.865332"
     id="path4"
     style="stroke-width:1.33333" />
</svg>
